# xmcd CD database file
#
# Track frame offsets:
#	150
#	24485
#	42590
#
# Disc length: 876 seconds
#
# Revision: 1
# Processed by: cddbd v1.5.2PL0 Copyright (c) Steve Scherf et al.
# Submitted via: CDex 1.70beta2
#
DISCID=1f036a03
DTITLE=甲斐よしひろ - NIGHT TRIPPER
DYEAR=1990
DGENRE=Japanese Rock
TTITLE0=NIGHT TRIPPER
TTITLE1=TWO MOON JUNCTION（NIGHT TRIPPER REPRISE）
TTITLE2=ミッドナイト・プラスワン（LIVE）
EXTD=YEAR: 1990
EXTT0=
EXTT1=
EXTT2=
PLAYORDER=
